<svg viewBox="0 0 512 512" xmlns="http://www.w3.org/2000/svg">
  <rect width="512" height="512" fill="#0f0d0a"/>
  <g transform="translate(76,86) scale(4.5)" stroke-linecap="round">
    <line x1="6" y1="74" x2="40" y2="52" stroke="#F5F0E8" stroke-width="6"/>
    <circle cx="6" cy="74" r="6" fill="#F5F0E8"/>
    <circle cx="40" cy="52" r="5" fill="#F5F0E8"/>
    <line x1="74" y1="74" x2="40" y2="52" stroke="#F5F0E8" stroke-width="6"/>
    <circle cx="74" cy="74" r="6" fill="#F5F0E8"/>
    <line x1="6" y1="46" x2="40" y2="52" stroke="#F5F0E8" stroke-width="6"/>
    <circle cx="6" cy="46" r="6" fill="#F5F0E8"/>
    <line x1="74" y1="46" x2="40" y2="52" stroke="#F5F0E8" stroke-width="6"/>
    <circle cx="74" cy="46" r="6" fill="#F5F0E8"/>
    <ellipse cx="40" cy="30" rx="26" ry="24" fill="#F5F0E8"/>
    <rect x="20" y="47" width="40" height="11" rx="2" fill="#F5F0E8"/>
    <ellipse cx="29" cy="28" rx="7.5" ry="8.5" fill="#0f0d0a"/>
    <ellipse cx="51" cy="28" rx="7.5" ry="8.5" fill="#0f0d0a"/>
    <polygon points="37,41 43,41 40,48" fill="#0f0d0a"/>
    <rect x="28" y="47" width="3" height="8" fill="#0f0d0a"/>
    <rect x="37" y="47" width="3" height="8" fill="#0f0d0a"/>
    <rect x="47" y="47" width="3" height="8" fill="#0f0d0a"/>
    <rect x="56" y="47" width="3" height="8" fill="#0f0d0a"/>
  </g>
</svg>
